<svg width="48" height="70" viewBox="0 0 48 70" fill="none" xmlns="http://www.w3.org/2000/svg">
<path d="M17.328 70H16.176C13.616 70 11.472 69.808 9.744 69.424C8.08 69.04 6.608 68.272 5.328 67.12C4.112 65.904 3.152 64.56 2.448 63.088C1.808 61.616 1.296 59.408 0.912 56.464C0.336 52.048 0.0480001 46.128 0.0480001 38.704C0.0480001 31.216 0.0800002 25.936 0.144 22.864C0.272 19.792 0.528 16.816 0.912 13.936C1.296 10.992 1.808 8.816 2.448 7.408C3.152 5.936 4.112 4.624 5.328 3.472C6.608 2.256 8.08 1.488 9.744 1.168C11.472 0.783997 13.616 0.591995 16.176 0.591995H17.328V70ZM21.168 0.591995H33.36C38.032 0.591995 41.552 1.392 43.92 2.992C46.352 4.592 47.568 7.376 47.568 11.344V19.984C47.568 21.328 47.12 22 46.224 22H34.128C33.232 22 32.688 21.872 32.496 21.616C32.304 21.36 32.208 20.816 32.208 19.984V12.496C32.208 11.472 32.048 10.768 31.728 10.384C31.472 9.936 30.768 9.712 29.616 9.712H21.168V0.591995ZM34.128 48.592H46.224C47.12 48.592 47.568 49.264 47.568 50.608V59.248C47.568 63.216 46.352 66 43.92 67.6C41.552 69.2 38.032 70 33.36 70H21.168V60.88H29.616C30.768 60.88 31.472 60.688 31.728 60.304C32.048 59.856 32.208 59.12 32.208 58.096V50.608C32.208 49.776 32.304 49.232 32.496 48.976C32.688 48.72 33.232 48.592 34.128 48.592Z" fill="#B7B7B7"/>
</svg>
